<svg width="512" height="512" viewBox="0 0 512 512" fill="none" xmlns="http://www.w3.org/2000/svg">
<path fill-rule="evenodd" clip-rule="evenodd" d="M221.981 45.017C213.334 45.1773 202.513 50.5703 194.774 48.7073C191.685 47.9637 187.91 47.6431 184.214 47.8436C184.149 47.8474 184.083 47.8398 184.017 47.8436C180.259 48.0669 176.592 48.8591 173.889 50.5132C173.777 50.5815 173.649 50.6448 173.535 50.7095C173.428 50.8666 173.314 51.0089 173.182 51.1413C169.59 54.733 161.646 55.0615 157.95 58.7575C154.931 61.7765 152.133 67.5569 148.802 72.7337C148.771 72.7829 148.756 72.8416 148.724 72.8907C136.872 86.7085 127.415 103.711 124.069 117.606C121.321 129.024 121.358 144.445 116.846 155.805C115.584 158.982 110.351 176.569 114.412 179.989C117.178 182.318 128.968 184.101 132.431 179.989C134.295 177.775 151.387 172.243 156.733 165.895C163.028 158.419 166.276 145.507 170.591 134.645C171.278 132.916 172.162 131.082 173.182 129.266C175.63 134.008 177.573 137.88 178.6 140.259C180.736 145.211 183.087 152.059 185.038 159.378C180.809 165.857 182.571 174.721 185.627 178.772C173.261 182.622 179.152 195.925 178.678 196.399C177.864 197.214 175.284 198.301 174.242 199.343C172.952 200.633 172.75 203.324 172.75 205.271C172.75 207.151 172.988 208.821 173.339 210.296C162.087 238.601 151.467 274.031 138.045 293.133C134.182 294.895 130.23 296.407 125.6 297.333C116.579 299.589 93.7751 304.059 74.5639 310.524C73.7301 311.632 72.7585 312.722 71.6588 313.822C69.7552 315.725 65.9461 315.726 64.0426 317.63C62.562 319.111 57.9461 317.445 56.4656 318.926C52.0723 323.319 45.588 325.601 38.6814 329.054C37.9152 329.437 35.4599 328.468 34.8733 329.054C31.7358 332.192 26.118 334.002 23.449 336.671C18.2271 341.892 13.8496 347.565 8.21655 353.198C2.61837 358.797 14.0351 374.21 15.8328 376.008C21.1227 381.298 30.8396 382.142 36.1295 387.432C38.355 389.658 45.8165 386.681 48.4961 388.453C49.1881 388.55 49.8069 388.676 50.2235 388.885C58.0175 392.782 73.3061 395.663 82.5334 398.739C95.25 402.978 105.337 414.303 118.455 417.583C128.442 420.08 139.783 421.408 149.862 424.767C154.076 426.172 159.194 425.208 163.289 426.573C170.948 429.126 177.863 432.295 184.842 434.621C187.259 435.427 190.453 434.002 192.929 434.621C198.501 436.014 204.525 436.419 209.967 438.233C219.659 441.463 232.586 435.003 242.277 438.233C248.664 440.362 288.428 436.955 291.626 433.758C293.977 431.407 302.917 434.393 305.995 432.855C308.665 431.519 316.777 432.829 318.557 431.049C323.156 426.45 332.597 426.247 339.168 422.961C341.933 421.579 346.193 423.493 349.061 422.058C350.711 421.233 354.063 422.248 357.698 423.825C364.616 423.68 369.94 422.961 376.857 422.961C385.08 422.961 396.431 419.057 408.46 413.147C421.772 410.148 438.045 406.685 438.807 405.923C444.591 400.139 459.964 401.804 465.699 396.069C469.762 392.006 474.983 390.358 479.165 386.176C482.891 382.45 488.01 378.183 493.377 373.692C494.311 371.087 496.703 368.637 498.912 366.429C499.838 365.503 506.375 346.374 505.194 344.012C503.031 339.686 499.457 336.108 495.34 332.784C494.062 332.346 493.083 331.901 492.631 331.449C488.233 327.051 477.696 326.368 473.787 322.459C467.492 316.164 458.028 310.507 446.737 306.716C444.372 305.544 442.159 304.297 440.574 302.712C438.563 300.701 426.94 298.133 423.535 296.43C421.704 295.514 417.718 296.933 416.351 295.567C413.036 292.251 399.142 289.889 389.105 286.694C387.642 286.787 385.294 285.67 384.865 285.242C384.563 284.94 376.784 283.794 374.226 281.237C373.936 280.947 372.891 270.523 372.891 269.224C372.891 268.745 371.729 266.814 372.42 266.122C372.528 266.015 372.633 265.888 372.734 265.769C368.089 237.145 364.537 205.536 361.192 202.72C356.225 198.536 353.465 175.442 348.001 170.841C342.289 166.031 338.714 160.771 334.3 156.669C334.298 156.656 334.303 156.642 334.3 156.63C332.64 147.504 329.487 137.251 328.49 136.411C326.871 135.048 329.324 128.863 327.705 127.5C322.665 123.256 316.1 98.3066 311.373 94.3261C305.182 89.1126 302.137 81.021 296.258 76.0707C281.733 63.839 257.605 45.6372 230.932 47.0192C229.785 46.696 228.669 46.3073 227.595 45.8807C225.899 45.207 223.976 44.98 221.981 45.017V45.017V45.017Z" fill="#3C6991"/>
<path fill-rule="evenodd" clip-rule="evenodd" d="M216.222 203.423C213.982 203.019 211.791 202.995 210.073 203.566C207.211 204.515 202.597 202.266 199.609 202.806C188.311 204.845 179.454 207.906 177.928 211.704C194.696 206.896 213.312 217.627 220.939 227.822C224.109 232.06 219.219 238.484 220.945 243.683C221.336 244.86 221.648 252.399 220.291 253.414C217.454 255.536 217.735 262.942 215.389 266.321C209.867 274.276 205.051 280.088 200.36 286.845C195.523 293.814 182.589 295.21 175.37 297.606C173.775 298.135 171.767 297.034 170.085 297.592C169.688 297.724 169.225 297.747 168.762 297.682C168.925 297.866 169.112 298.041 169.246 298.22C169.855 299.034 172.824 298.258 173.692 298.861C179.301 302.755 201.498 301.261 207.653 299.219C211.482 297.947 215.034 296.07 218.863 294.799C223.774 293.169 228.607 285.533 232.134 281.601C244.265 268.078 249.808 244.656 243.809 226.581C240.793 217.495 232.898 212.05 226.178 207.384C223.88 205.789 219.957 204.096 216.222 203.423L216.222 203.423V203.423Z" fill="#E6B35A" stroke="white" stroke-opacity="0.01" stroke-width="1.1795"/>
<path fill-rule="evenodd" clip-rule="evenodd" d="M243.278 185.967C242.556 185.944 242.455 193.015 242.399 196.386C242.059 196.406 242.075 196.831 242.166 197.312C238.52 198.931 230.584 202.174 231.191 202.822C231.22 202.837 231.223 202.858 231.237 202.869C230.95 202.883 230.649 202.981 230.635 203.378C230.607 203.902 231.686 203.407 232.21 203.424C233.054 203.453 240.436 206.174 243.37 207.407C243.733 210.195 244.805 211.86 244.805 215.047C244.805 217.034 245.197 219.77 245.314 219.77C245.358 219.77 245.438 219.709 245.498 219.677C245.585 220.022 245.682 220.226 245.822 220.094C246.399 219.554 247.445 218.108 248.508 216.482C248.554 216.412 248.603 216.368 248.646 216.297C250.517 213.98 252.654 211.013 254.481 208.333C258.021 208.848 261.264 209.259 262.075 209.259C262.464 209.259 275.916 211.57 272.03 207.684C271.795 207.447 271.519 207.246 271.243 207.036C271.33 206.968 271.379 206.898 271.381 206.804C271.41 206.054 263.9 202.602 262.676 201.294C262.085 200.663 261.229 200.258 260.638 199.627C260.483 199.461 260.776 198.998 261.24 198.33V198.284C262.284 197.131 263.399 195.94 264.204 195.135C264.59 194.749 266.763 190.683 264.701 190.951C263.31 191.131 258.766 191.419 252.815 193.161C252.815 193.161 251.208 191.06 251.197 191.066C249.905 190.537 246.244 186.065 243.274 185.967L243.278 185.967V185.967Z" fill="#E6B35A" stroke="white" stroke-opacity="0.01" stroke-width="1.1795"/>
<path fill-rule="evenodd" clip-rule="evenodd" d="M209.673 184.918C209.245 185.125 208.594 185.967 208.388 185.538C208.181 185.109 210.102 184.711 209.673 184.918C208.395 185.535 203.449 189.99 205.271 191.398C206.771 192.557 212.331 190.39 214.69 191.214C215.043 191.337 218.961 197.35 219.575 195.594C220.576 192.729 219.336 187.859 219.368 187.77C219.83 186.449 223.448 186.991 224.333 186.565C225.063 186.212 226.545 185.588 226.749 185.003C226.804 184.844 226.844 184.375 226.916 184.527C226.976 184.65 225.95 183.655 224.7 183.218C222.832 182.566 220.942 182.975 219.603 182.507C218.986 182.291 219.73 178.66 219.506 178.196C218.77 176.671 218.304 174.882 218.432 175.148C218.797 175.906 216.851 175.889 216.337 176.555C215.697 177.383 214.019 180.192 212.933 180.177C211.633 180.157 206.424 178.918 206.075 179.919C206.046 179.975 209.321 183.216 209.674 184.918L209.673 184.918V184.918Z" fill="#E6B35A" stroke="white" stroke-opacity="0.01" stroke-width="0.803394"/>
<path fill-rule="evenodd" clip-rule="evenodd" d="M260.025 235.454C259.676 235.13 258.655 234.831 258.979 234.482C259.303 234.134 260.374 235.777 260.025 235.454C258.984 234.488 253.033 231.506 252.386 233.717C251.853 235.536 255.898 239.923 255.991 242.42C256.019 242.794 251.834 248.634 253.693 248.565C256.726 248.453 260.81 245.524 260.903 245.521C262.302 245.469 263.116 249.036 263.836 249.705C264.43 250.256 265.551 251.408 266.17 251.385C266.34 251.379 266.789 251.244 266.674 251.365C266.583 251.466 267.134 250.148 267.085 248.825C267.011 246.848 265.943 245.236 265.89 243.82C265.861 243.166 269.518 242.535 269.868 242.157C271.02 240.916 272.516 239.83 272.315 240.047C271.743 240.663 271.049 238.845 270.242 238.608C269.237 238.314 266.009 237.775 265.628 236.759C265.172 235.542 264.428 230.239 263.368 230.278C263.308 230.28 261.481 234.504 260.025 235.452V235.454V235.454Z" fill="#E6B35A" stroke="white" stroke-opacity="0.01" stroke-width="0.803394"/>
<path fill-rule="evenodd" clip-rule="evenodd" d="M374.541 282.415C373.526 285.904 367.167 297.091 364.49 299.767C361.048 303.21 358.087 306.799 355.068 309.817C352.929 311.956 346.824 317.433 345.018 319.24C341.091 323.167 338.79 321.699 334.34 326.149C332.134 328.355 327.694 328.398 325.546 330.546C323.603 332.489 308.016 333.657 304.189 335.571C303.262 336.034 300.496 334.867 299.792 335.571C297.042 338.321 275.312 339.322 274.666 339.968C271.339 343.295 262.482 339.465 257.706 341.853C253.471 343.97 245.064 342.481 240.118 342.481C237.38 342.481 230.103 342.429 222.609 342.245C220.84 341.995 219.446 341.796 219.39 341.853C219.352 341.891 219.182 342.064 219.076 342.167C217.668 342.123 216.313 342.064 214.954 342.01C214.107 341.688 213.209 341.488 212.48 341.853C212.446 341.87 212.398 341.876 212.363 341.892C206.515 341.609 201.743 341.195 200.546 340.596C195.63 338.139 190.352 337.456 184.214 337.456C174.608 337.456 153.337 326.1 145.897 322.38C144.758 321.811 141.598 318.498 139.891 317.591C139.877 316.933 139.854 316.337 139.616 316.099C137.866 314.348 137.099 310.437 135.847 307.933C135.326 306.891 135.847 303.072 135.847 303.536C135.847 303.557 137.11 298.511 137.103 298.511C136.027 298.511 130.398 305.845 128.309 307.933C128.29 307.952 128.349 308.066 128.388 308.169C127.211 309.791 126.386 312.211 126.386 315.863C126.386 328.313 133.253 328.972 139.695 335.414C141.276 336.996 144.662 335.946 145.897 337.181C147.159 338.442 149.01 339.562 151.197 340.557C148.461 342.161 143.189 342.559 141.461 344.287C139.771 345.977 131.935 350.836 129.016 352.295C128.467 352.57 125.812 352.869 125.483 353.198C108.889 369.792 90.1621 380.51 74.839 395.833C73.549 397.123 73.0723 413.972 73.0723 417.151C73.0723 422.701 71.1873 428.575 74.839 432.226C76.3796 433.767 81.4876 432.672 82.8478 434.032C83.1426 434.327 86.8571 437.09 87.284 436.663C88.9051 435.042 86.3811 426.566 86.3811 424.257C86.3811 412.127 87.6902 399.864 95.2928 392.261C109.953 377.601 130.856 370.91 144.131 357.635C148.033 353.732 155.183 351.654 160.384 347.388C160.202 348.639 160.414 349.818 161.326 350.804C161.932 351.459 164.092 350.161 164.859 350.568C170.076 353.334 185.972 359.264 190.652 353.552C191.501 355.165 192.174 356.8 193.008 357.635C196.124 360.751 193.687 375.788 192.105 378.952C186.135 390.892 182.987 425.366 177.893 430.46C177.014 431.339 178.948 439.715 179.66 441.138C181.511 444.84 178.306 453.092 179.66 454.447C180.992 455.779 180.133 459.317 181.466 460.65C182.679 461.863 188.222 460.34 189.435 461.553C189.916 462.034 196.236 466.334 197.444 465.125C198.445 464.124 194.703 452.577 193.872 450.914C193.155 449.481 195.801 423.191 196.541 422.451C197.578 421.415 195.505 417.284 196.541 416.248C198.559 414.23 200.977 372.414 200.977 366.507C200.977 365.51 203.526 359.28 201.88 357.635C201.872 357.626 200.409 354.266 198.426 351C201.354 351.217 203.825 351.57 204.55 352.295C205.854 353.599 232.137 352.295 236.507 352.295C253.862 352.295 281.164 350.951 291.587 348.723C295.742 347.835 305.596 347.058 311.138 344.287C314.355 342.678 325.686 341.578 327.666 341.067C331.897 339.977 345.494 336.705 349.297 332.902C352.118 330.081 361.764 320.308 365.315 318.533C369.318 316.531 371.329 309.42 373.677 306.127C373.978 303.689 380.54 297.318 379.252 294.742C377.79 288.793 376.876 282.644 374.541 282.415L374.541 282.415V282.415Z" fill="#E6B35A" stroke="white" stroke-opacity="0.01"/>
</svg>
