<svg width="512" height="512" viewBox="0 0 512 512" fill="none" xmlns="http://www.w3.org/2000/svg">
<g clip-path="url(#clip0_504_590)">
<path d="M104.418 407.582L16.8258 319.991C6.4367 309.338 0 294.281 0 279.564C0 272.75 3.83944 262.098 6.73783 256L87.5918 87.5918L104.418 407.582Z" fill="#01579B"/>
<path d="M404.233 104.418L316.641 16.8258C309 9.14689 293.077 0 279.602 0C268.008 0 256.64 2.33377 249.3 6.73783L87.6299 87.5918L404.233 104.418Z" fill="#40C4FF"/>
<path d="M208.835 512H421.058V421.058L262.738 370.505L117.894 421.058L208.835 512Z" fill="#40C4FF"/>
<path d="M87.5918 360.418C87.5918 387.444 90.9795 394.069 104.418 407.582L117.893 421.058H421.058L272.863 252.65L87.5918 87.5918V360.418Z" fill="#29B6F6"/>
<path d="M357.067 87.5542H87.5918L421.058 421.02H512V212.185L404.195 104.38C389.063 89.2104 375.625 87.5542 357.067 87.5542Z" fill="#01579B"/>
<path opacity="0.2" d="M107.805 410.932C94.3292 397.419 90.9791 384.094 90.9791 360.418V90.9419L87.629 87.5918V360.418C87.5914 384.094 87.5914 390.644 107.805 410.932L117.893 421.02L107.805 410.932Z" fill="white"/>
<path opacity="0.2" d="M508.65 208.835V417.67H417.708L421.058 421.058H512V212.185L508.65 208.835Z" fill="#263238"/>
<path opacity="0.2" d="M404.233 104.418C387.52 87.7047 373.856 87.5918 353.718 87.5918H87.6299L90.98 90.9419H353.718C363.768 90.9419 389.139 89.248 404.233 104.418Z" fill="white"/>
<path opacity="0.2" d="M508.65 208.835L404.233 104.418L316.641 16.8258C309 9.14689 293.077 0 279.602 0C268.008 0 256.64 2.33377 249.3 6.73783L87.6299 87.5918L6.77592 256C3.87752 262.136 0.0380859 272.788 0.0380859 279.564C0.0380859 294.281 6.51243 309.3 16.8638 319.991L97.5673 400.129C99.487 402.501 101.745 404.91 104.418 407.582L107.768 410.932L117.856 421.02L205.448 508.612L208.798 511.962H417.633H420.983V421.02H511.925V420.795V212.185L508.65 208.835Z" fill="url(#paint0_radial_504_590)"/>
</g>
<defs>
<radialGradient id="paint0_radial_504_590" cx="0" cy="0" r="1" gradientUnits="userSpaceOnUse" gradientTransform="translate(255.982 255.952) scale(255.962 255.962)">
<stop stop-color="white" stop-opacity="0.1"/>
<stop offset="1" stop-color="white" stop-opacity="0"/>
</radialGradient>
<clipPath id="clip0_504_590">
<rect width="512" height="512" fill="white"/>
</clipPath>
</defs>
</svg>
